<svg version="1.1" xmlns="http://www.w3.org/2000/svg" xmlns:xlink="http://www.w3.org/1999/xlink" width="113.3662338256836" height="35.13999938964844"><defs></defs><g transform="translate(-61.86646270751953,18.48200035095215)"><rect fill="rgb(255,255,255)" stroke="none" x="0" y="0" width="113.3662338256836" height="35.13999938964844" fill-opacity="0" transform="translate(61.86646270751953,-18.48200035095215)"></rect><g transform="translate(56.68552235393558,17.5679988861084) rotate(0,0,0) translate(-56.68552235393558,-17.5679988861084) matrix(1,0,-0.2867453857588079,1,56.68552235393558,17.5679988861084)"><path fill="rgb(236,196,242)" fill-opacity="0.9019607843137255" d="M31.75-5.14L31.75-5.14Q31.75-4.80 31.51-4.42Q31.27-4.03 30.84-4.03L30.84-4.03Q30.60-4.03 30.31-4.18L30.31-4.18Q28.58-4.99 26.28-5.50Q23.97-6.00 21.55-6.38Q19.13-6.77 16.82-7.22Q14.52-7.68 12.79-8.40L12.79-8.40Q13.08-7.78 13.37-7.39Q13.65-7.01 13.87-6.72Q14.09-6.43 14.23-6.17Q14.37-5.90 14.37-5.47L14.37-5.47Q14.37-5.09 14.09-4.90Q13.80-4.70 13.51-4.70L13.51-4.70Q12.93-4.70 12.29-5.42Q11.64-6.14 10.97-7.25Q10.29-8.35 9.65-9.72Q9.00-11.09 8.47-12.38Q7.94-13.68 7.56-14.76Q7.17-15.84 7.03-16.42L7.03-16.42L4.92-24.86Q4.92-25.01 4.99-25.25Q5.06-25.49 5.35-25.73L5.35-25.73Q5.16-26.11 5.16-26.54L5.16-26.54Q5.16-27.89 6.69-29.02Q8.23-30.14 10.41-30.94Q12.60-31.73 15.00-32.16Q17.40-32.59 19.08-32.59L19.08-32.59Q19.56-32.59 20.52-32.52Q21.48-32.45 22.41-32.16Q23.35-31.87 24.05-31.27Q24.74-30.67 24.74-29.62L24.74-29.62Q24.74-28.61 23.71-27.31Q22.68-26.02 21.14-24.58Q19.61-23.14 17.83-21.62Q16.05-20.11 14.52-18.60Q12.98-17.09 11.95-15.67Q10.92-14.26 10.92-13.06L10.92-13.06Q10.92-12.14 11.71-11.45Q12.50-10.75 13.70-10.22Q14.90-9.70 16.32-9.31Q17.73-8.93 19.01-8.69Q20.28-8.45 21.21-8.33Q22.15-8.21 22.34-8.21L22.34-8.21Q22.97-8.21 24.50-8.06Q26.04-7.92 27.65-7.56Q29.25-7.20 30.50-6.62Q31.75-6.05 31.75-5.14ZM22.49-29.57L22.49-29.57Q22.49-29.90 22.15-30.17Q21.81-30.43 21.26-30.60Q20.71-30.77 20.06-30.84Q19.41-30.91 18.79-30.91L18.79-30.91Q17.83-30.91 16.49-30.62Q15.14-30.34 13.77-29.90Q12.41-29.47 11.25-29.04Q10.10-28.61 9.57-28.32L9.57-28.32Q8.57-27.74 7.61-27.05Q6.65-26.35 6.65-25.68L6.65-25.68Q6.65-25.58 6.79-25.49Q6.93-25.39 6.93-25.15L6.93-25.15Q6.93-24.86 7.22-23.69Q7.51-22.51 7.89-21.05Q8.28-19.58 8.73-18.14Q9.19-16.70 9.57-15.84L9.57-15.84Q11.54-18.62 13.82-20.71Q16.10-22.80 18.02-24.41Q19.94-26.02 21.21-27.24Q22.49-28.46 22.49-29.57ZM52.63-17.33L52.63-17.33Q52.63-16.46 51.84-15.19Q51.05-13.92 49.70-12.72Q48.36-11.52 46.58-10.68Q44.81-9.84 42.89-9.84L42.89-9.84Q42.02-9.84 41.06-10.13Q40.10-10.42 39.19-10.97Q38.28-11.52 37.56-12.31Q36.84-13.10 36.50-14.11L36.50-14.11Q36.21-13.82 35.81-13.15Q35.40-12.48 34.92-11.78Q34.44-11.09 33.86-10.58Q33.29-10.08 32.66-10.08L32.66-10.08Q32.04-10.08 31.63-10.73Q31.22-11.38 30.98-12.17Q30.74-12.96 30.65-13.68Q30.55-14.40 30.55-14.50L30.55-14.50Q30.55-15.07 30.89-16.68Q31.22-18.29 31.89-20.02Q32.57-21.74 33.60-23.09Q34.63-24.43 36.02-24.43L36.02-24.43Q36.55-24.43 36.72-23.98Q36.89-23.52 36.89-23.09L36.89-23.09L36.89-21.65Q37.13-21.46 37.39-21.38Q37.65-21.31 37.87-21.19Q38.09-21.07 38.21-20.83Q38.33-20.59 38.33-20.06L38.33-20.06Q38.33-19.73 38.28-19.46Q38.23-19.20 38.23-18.96L38.23-18.96Q38.23-17.71 38.42-16.51Q38.61-15.31 39.19-14.38Q39.77-13.44 40.77-12.84Q41.78-12.24 43.46-12.24L43.46-12.24Q45.57-12.24 47.04-13.13Q48.50-14.02 49.49-15.10Q50.47-16.18 51.05-17.06Q51.62-17.95 52.01-17.95L52.01-17.95Q52.63-17.95 52.63-17.33ZM35.78-19.44L35.78-19.44Q35.78-19.63 35.69-19.80Q35.59-19.97 35.59-20.11L35.59-20.11Q35.59-20.30 35.69-20.45Q35.78-20.59 35.78-20.83L35.78-20.83Q35.78-20.98 35.69-21.05Q35.59-21.12 35.59-21.22L35.59-21.22Q35.16-21.12 34.70-20.40Q34.25-19.68 33.84-18.72Q33.43-17.76 33.19-16.78Q32.95-15.79 32.95-15.17L32.95-15.17Q32.95-14.83 33.14-14.06Q33.33-13.30 33.57-13.06L33.57-13.06Q34.39-14.74 35.09-16.32Q35.78-17.90 35.78-19.44ZM64.53-2.88L64.53-2.88Q64.53-2.74 64.49-2.40Q64.44-2.06 64.32-1.75Q64.20-1.44 63.96-1.18Q63.72-0.91 63.33-0.91L63.33-0.91Q62.23-0.91 61.89-1.58Q61.56-2.26 61.56-3.07L61.56-3.07Q61.56-3.26 61.46-3.70Q61.37-4.13 61.27-4.66Q61.17-5.18 61.08-5.71Q60.98-6.24 60.98-6.62L60.98-6.62Q60.98-7.34 60.91-8.26Q60.84-9.17 60.72-10.10Q60.60-11.04 60.48-11.90Q60.36-12.77 60.26-13.44L60.26-13.44L60.12-13.58Q59.59-13.25 59.18-12.77Q58.77-12.29 58.37-11.86Q57.96-11.42 57.50-11.14Q57.05-10.85 56.42-10.85L56.42-10.85Q55.56-10.85 54.89-11.45Q54.21-12.05 53.78-12.86Q53.35-13.68 53.13-14.52Q52.92-15.36 52.92-15.84L52.92-15.84Q52.92-16.90 53.37-18.24Q53.83-19.58 54.65-20.76Q55.46-21.94 56.59-22.75Q57.72-23.57 59.11-23.57L59.11-23.57Q59.64-23.57 60.07-23.28Q60.50-22.99 60.86-22.58Q61.22-22.18 61.49-21.74Q61.75-21.31 61.94-21.07L61.94-21.07Q62.47-20.45 62.76-19.99Q63.05-19.54 63.05-18.86L63.05-18.86Q63.05-18.72 62.90-18.00Q62.76-17.28 62.76-16.80L62.76-16.80Q62.76-14.83 62.88-12.79Q63.00-10.75 63.19-9.00Q63.38-7.25 63.57-5.95Q63.77-4.66 63.86-4.18L63.86-4.18Q63.96-3.79 64.25-3.67Q64.53-3.55 64.53-2.88ZM60.36-19.01L60.36-19.01Q60.31-19.49 60.00-20.21Q59.69-20.93 58.73-20.93L58.73-20.93Q57.91-20.93 57.24-20.23Q56.57-19.54 56.09-18.60Q55.61-17.66 55.37-16.78Q55.13-15.89 55.13-15.46L55.13-15.46Q55.13-15.36 55.20-15.02Q55.27-14.69 55.39-14.30Q55.51-13.92 55.70-13.63Q55.89-13.34 56.13-13.34L56.13-13.34Q56.71-13.34 57.43-14.14Q58.15-14.93 58.80-15.94Q59.45-16.94 59.90-17.86Q60.36-18.77 60.36-19.01ZM83.16-15.31L83.16-15.31Q83.16-14.88 82.58-14.40Q82.01-13.92 81.24-13.51Q80.47-13.10 79.68-12.82Q78.89-12.53 78.50-12.53L78.50-12.53Q78.07-12.53 77.57-12.77Q77.06-13.01 76.61-13.34Q76.15-13.68 75.81-13.97Q75.48-14.26 75.38-14.35L75.38-14.35Q75.24-14.21 74.95-13.78Q74.66-13.34 74.25-12.84Q73.85-12.34 73.39-11.95Q72.93-11.57 72.45-11.57L72.45-11.57Q71.21-11.57 70.29-12.91Q69.38-14.26 68.78-15.98Q68.18-17.71 67.87-19.32Q67.56-20.93 67.56-21.50L67.56-21.50Q67.56-21.84 67.92-22.06Q68.28-22.27 68.47-22.27L68.47-22.27Q69.14-22.27 69.38-21.82Q69.62-21.36 69.62-20.83L69.62-20.83Q69.62-20.40 69.89-19.30Q70.15-18.19 70.53-17.04Q70.92-15.89 71.35-15.00Q71.78-14.11 72.12-14.11L72.12-14.11Q72.74-14.11 73.20-14.90Q73.65-15.70 73.94-16.73Q74.23-17.76 74.37-18.70Q74.52-19.63 74.52-19.92L74.52-19.92Q74.52-19.97 74.54-20.23Q74.57-20.50 74.61-20.78Q74.66-21.07 74.69-21.31Q74.71-21.55 74.71-21.65L74.71-21.65Q74.71-21.98 74.57-22.10Q74.42-22.22 74.42-22.61L74.42-22.61Q74.42-22.90 74.71-23.16Q75.00-23.42 75.96-23.42L75.96-23.42Q76.34-23.42 76.56-23.21Q76.77-22.99 76.87-22.70Q76.97-22.42 76.99-22.15Q77.01-21.89 77.01-21.79L77.01-21.79Q77.01-21.74 76.97-21.12Q76.92-20.50 76.89-19.75Q76.87-19.01 76.82-18.34Q76.77-17.66 76.77-17.52L76.77-17.52Q76.77-17.38 76.92-16.94Q77.06-16.51 77.28-16.06Q77.49-15.60 77.78-15.24Q78.07-14.88 78.41-14.88L78.41-14.88Q78.98-14.88 79.49-15.05Q79.99-15.22 80.45-15.43Q80.90-15.65 81.29-15.82Q81.67-15.98 82.01-15.98L82.01-15.98Q82.44-15.98 82.80-15.79Q83.16-15.60 83.16-15.31ZM98.42-12.38L98.42-12.38Q98.47-12.29 98.47-12.10L98.47-12.10Q98.47-11.81 98.04-11.23L98.04-11.23Q97.89-11.04 97.41-10.61Q96.93-10.18 96.12-9.74Q95.30-9.31 94.13-8.98Q92.95-8.64 91.37-8.64L91.37-8.64Q90.26-8.64 89.21-9.14Q88.15-9.65 87.33-10.63Q86.52-11.62 85.99-13.08Q85.46-14.54 85.46-16.51L85.46-16.51Q85.46-18.38 85.94-20.02Q86.42-21.65 87.17-22.90Q87.91-24.14 88.82-24.86Q89.73-25.58 90.60-25.58L90.60-25.58Q91.37-25.58 92.16-25.27Q92.95-24.96 93.60-24.48Q94.25-24.00 94.63-23.40Q95.01-22.80 95.01-22.18L95.01-22.18Q95.01-21.46 94.37-20.69Q93.72-19.92 92.81-19.27Q91.89-18.62 90.98-18.22Q90.07-17.81 89.54-17.81L89.54-17.81Q89.25-17.81 89.04-18.07Q88.82-18.34 88.82-18.72L88.82-18.72Q88.82-19.39 89.42-19.78Q90.02-20.16 90.74-20.47Q91.46-20.78 92.06-21.22Q92.66-21.65 92.66-22.42L92.66-22.42Q92.66-22.51 92.42-22.90Q92.18-23.28 91.13-23.28L91.13-23.28Q90.65-23.28 90.02-22.73Q89.40-22.18 88.82-21.24Q88.25-20.30 87.86-19.03Q87.48-17.76 87.48-16.27L87.48-16.27Q87.48-15.02 87.93-14.02Q88.39-13.01 89.11-12.31Q89.83-11.62 90.79-11.23Q91.75-10.85 92.76-10.85L92.76-10.85Q93.48-10.85 94.32-11.16Q95.16-11.47 95.90-11.83Q96.65-12.19 97.20-12.50Q97.75-12.82 97.89-12.82L97.89-12.82Q98.04-12.82 98.21-12.67Q98.37-12.53 98.42-12.38ZM108.21-8.74L108.21-8.74Q108.21-8.35 107.93-8.16Q107.64-7.97 107.25-7.97L107.25-7.97Q106.82-7.97 106.37-8.78Q105.91-9.60 105.48-10.85Q105.05-12.10 104.66-13.56Q104.28-15.02 103.99-16.30Q103.70-17.57 103.53-18.43Q103.37-19.30 103.37-19.39L103.37-19.39Q103.37-19.58 103.20-20.40Q103.03-21.22 102.77-22.94Q102.50-24.67 102.19-27.43Q101.88-30.19 101.54-34.27L101.54-34.27Q101.54-34.70 101.69-35.38Q101.83-36.05 102.36-36.05L102.36-36.05Q103.03-36.05 103.39-35.14Q103.75-34.22 103.97-32.88Q104.18-31.54 104.28-30.07Q104.37-28.61 104.52-27.50L104.52-27.50Q104.71-25.97 104.88-24.72Q105.05-23.47 105.21-22.25Q105.38-21.02 105.65-19.68Q105.91-18.34 106.29-16.70L106.29-16.70L108.21-8.74Z"></path></g></g></svg>